<svg id="Capa_1" enable-background="new 0 0 512 512" height="512" viewBox="0 0 512 512" width="512" xmlns="http://www.w3.org/2000/svg"><g><g><path d="m248.896 512c-4.204 0-7.611-3.407-7.611-7.612 0-13.555 4.389-20.58 8.261-26.778 3.323-5.32 5.947-9.521 5.947-18.712s-2.624-13.391-5.948-18.712c-3.871-6.198-8.26-13.223-8.26-26.777 0-13.553 4.389-20.577 8.261-26.774 3.323-5.319 5.947-9.52 5.947-18.709s-2.624-13.391-5.947-18.71c-3.872-6.197-8.261-13.222-8.261-26.775s4.389-20.577 8.261-26.774c3.323-5.319 5.947-9.52 5.947-18.708 0-4.204 3.407-7.612 7.611-7.612s7.612 3.407 7.612 7.612c0 13.552-4.389 20.576-8.261 26.773-3.323 5.319-5.947 9.52-5.947 18.709s2.624 13.391 5.947 18.71c3.872 6.197 8.261 13.222 8.261 26.775s-4.389 20.577-8.261 26.774c-3.323 5.319-5.947 9.52-5.947 18.709 0 9.19 2.624 13.391 5.948 18.712 3.871 6.198 8.26 13.223 8.26 26.777s-4.389 20.579-8.26 26.777c-3.323 5.32-5.948 9.521-5.948 18.713-.001 4.205-3.408 7.612-7.612 7.612z" fill="#365e7d"/></g><g><path d="m252.074 496.201c-1.062 0-2.142-.224-3.17-.696-8.856-4.065-15.094-11.97-21.128-19.615-4.418-5.599-8.592-10.886-12.885-13.365-4.801-2.77-11.251-3.643-18.079-4.567-9.321-1.261-19.887-2.69-27.667-9.838-8.036-7.385-11.204-18.445-14.268-29.143-2.07-7.226-4.025-14.052-7.204-18.767-3.063-4.543-8.264-8.375-13.77-12.432-8.028-5.916-17.128-12.62-21.396-23.339-3.832-9.619-2.579-20.515-1.368-31.053.862-7.507 1.677-14.598.717-20.794-.644-4.154 2.2-8.044 6.355-8.688 4.148-.643 8.045 2.201 8.688 6.355 1.277 8.227.304 16.685-.636 24.865-1.042 9.063-2.026 17.624.388 23.682 2.658 6.676 9.278 11.553 16.284 16.717 6.306 4.646 12.827 9.451 17.362 16.177 4.527 6.715 6.911 15.037 9.216 23.085 2.484 8.672 5.053 17.639 9.934 22.125 4.259 3.913 11.617 4.909 19.407 5.962 7.989 1.08 16.251 2.198 23.649 6.468 6.824 3.94 12.111 10.639 17.225 17.118 4.917 6.231 10.002 12.674 15.528 15.211 3.821 1.754 5.496 6.273 3.742 10.093-1.283 2.792-4.041 4.439-6.924 4.439z" fill="#365e7d"/></g><g><path d="m252.925 496.201c-2.883 0-5.641-1.646-6.923-4.438-1.753-3.821-.078-8.339 3.742-10.093 5.526-2.537 10.612-8.98 15.528-15.211 5.114-6.479 10.401-13.178 17.224-17.117 7.399-4.271 15.661-5.388 23.65-6.469 7.79-1.054 15.149-2.05 19.407-5.962 4.881-4.486 7.45-13.452 9.934-22.124 2.305-8.049 4.689-16.371 9.217-23.087 4.535-6.725 11.056-11.531 17.362-16.177 7.007-5.163 13.625-10.04 16.284-16.716 2.412-6.057 1.428-14.618.387-23.681-.941-8.18-1.913-16.639-.636-24.866.644-4.154 4.527-6.996 8.688-6.355 4.155.644 6.999 4.534 6.355 8.688-.961 6.197-.146 13.287.718 20.795 1.211 10.536 2.463 21.432-1.368 31.052-4.269 10.719-13.369 17.423-21.396 23.339-5.506 4.057-10.708 7.889-13.77 12.432-3.18 4.717-5.135 11.542-7.205 18.768-3.063 10.697-6.232 21.758-14.269 29.142-7.779 7.149-18.345 8.578-27.666 9.838-6.829.924-13.279 1.797-18.08 4.568-4.292 2.478-8.466 7.765-12.884 13.364-6.034 7.645-12.272 15.55-21.128 19.615-1.029.471-2.108.695-3.171.695z" fill="#365e7d"/></g><ellipse cx="328.926" cy="103.666" fill="#707dd3" rx="87.542" ry="103.666"/><path d="m328.926 0c-3.924 0-7.785.311-11.572.903 42.878 6.706 75.97 50.156 75.97 102.763s-33.092 96.057-75.97 102.763c3.787.592 7.648.903 11.572.903 48.348 0 87.542-46.413 87.542-103.666s-39.194-103.666-87.542-103.666z" fill="#5766cb"/><ellipse cx="175.562" cy="103.666" fill="#ffe07d" rx="87.542" ry="103.666"/><path d="m175.562 0c-3.924 0-7.785.311-11.572.903 42.878 6.706 75.97 50.156 75.97 102.763s-33.092 96.057-75.97 102.763c3.787.592 7.648.903 11.572.903 48.348 0 87.542-46.413 87.542-103.666s-39.194-103.666-87.542-103.666z" fill="#ffd064"/><ellipse cx="112.128" cy="230.259" fill="#78c2a4" rx="87.542" ry="103.666"/><path d="m112.128 126.593c-3.924 0-7.785.311-11.572.903 42.878 6.706 75.97 50.156 75.97 102.763s-33.092 96.057-75.97 102.763c3.787.592 7.648.903 11.572.903 48.348 0 87.542-46.413 87.542-103.666s-39.194-103.666-87.542-103.666z" fill="#66b394"/><ellipse cx="399.872" cy="230.259" fill="#78c2a4" rx="87.542" ry="103.666"/><path d="m399.872 126.593c-3.924 0-7.785.311-11.572.903 42.878 6.706 75.97 50.156 75.97 102.763s-33.092 96.057-75.97 102.763c3.787.592 7.648.903 11.572.903 48.348 0 87.542-46.413 87.542-103.666.001-57.253-39.193-103.666-87.542-103.666z" fill="#66b394"/><ellipse cx="256" cy="199.813" fill="#dd636e" rx="87.542" ry="103.666"/><path d="m256 96.147c-3.924 0-7.785.311-11.572.903 42.878 6.706 75.97 50.156 75.97 102.764s-33.092 96.057-75.97 102.763c3.787.592 7.648.903 11.572.903 48.348 0 87.542-46.413 87.542-103.666 0-57.254-39.194-103.667-87.542-103.667z" fill="#da4a54"/><g><g><g><path d="m256 207.424c-4.204 0-7.611-3.407-7.611-7.611v-45.86c0-4.204 3.407-7.611 7.611-7.611s7.611 3.407 7.611 7.611v45.86c0 4.204-3.407 7.611-7.611 7.611z" fill="#f9f6f9"/></g><g><path d="m256 161.564c-1.777 0-3.553-.619-4.983-1.858l-9.903-8.577c-3.177-2.752-3.522-7.559-.77-10.736 2.752-3.176 7.559-3.523 10.736-.77l4.92 4.261 4.921-4.262c3.177-2.75 7.984-2.408 10.737.771 2.751 3.178 2.406 7.985-.771 10.737l-9.904 8.577c-1.43 1.238-3.207 1.857-4.983 1.857z" fill="#f9f6f9"/></g><g><path d="m260.08 173.524h-8.16c-4.204 0-7.611-3.407-7.611-7.611s3.407-7.611 7.611-7.611h8.16c4.204 0 7.612 3.407 7.612 7.611s-3.408 7.611-7.612 7.611z" fill="#f9f6f9"/></g></g><g><g><path d="m256 207.424c-1.948 0-3.896-.743-5.383-2.23-2.972-2.972-2.972-7.791.001-10.764l32.429-32.428c2.972-2.971 7.792-2.972 10.764.001 2.972 2.972 2.972 7.791-.001 10.764l-32.429 32.428c-1.485 1.486-3.434 2.229-5.381 2.229z" fill="#f9f6f9"/></g><g><path d="m301.504 175.935c-.183 0-.368-.006-.553-.02l-13.067-.939c-3.774-.271-6.776-3.273-7.047-7.047l-.939-13.067c-.301-4.192 2.853-7.835 7.047-8.137 4.187-.308 7.835 2.853 8.137 7.047l.467 6.493 6.493.467c4.193.301 7.348 3.945 7.047 8.137-.289 4.006-3.629 7.066-7.585 7.066z" fill="#f9f6f9"/></g><g><path d="m282.857 186.338c-1.947 0-3.896-.743-5.383-2.229l-5.77-5.77c-2.972-2.973-2.972-7.792 0-10.765 2.973-2.971 7.792-2.971 10.765 0l5.77 5.77c2.972 2.973 2.972 7.792 0 10.765-1.486 1.486-3.435 2.229-5.382 2.229z" fill="#f9f6f9"/></g></g><g><g><path d="m301.861 207.424h-45.861c-4.204 0-7.611-3.407-7.611-7.611s3.407-7.611 7.611-7.611h45.861c4.204 0 7.611 3.407 7.611 7.611s-3.407 7.611-7.611 7.611z" fill="#f9f6f9"/></g><g><path d="m310.441 217.328c-2.132 0-4.252-.89-5.757-2.628l-8.577-9.904c-2.477-2.86-2.477-7.106.001-9.966l8.577-9.903c2.752-3.177 7.56-3.522 10.736-.77 3.177 2.752 3.522 7.559.77 10.736l-4.261 4.92 4.262 4.921c2.751 3.178 2.406 7.985-.771 10.737-1.44 1.246-3.214 1.857-4.98 1.857z" fill="#f9f6f9"/></g><g><path d="m289.902 211.505c-4.204 0-7.611-3.407-7.611-7.611v-8.16c0-4.204 3.407-7.611 7.611-7.611s7.612 3.407 7.612 7.611v8.16c-.001 4.203-3.408 7.611-7.612 7.611z" fill="#f9f6f9"/></g></g><g><g><path d="m288.429 239.854c-1.947 0-3.896-.743-5.383-2.229l-32.429-32.429c-2.972-2.973-2.972-7.792 0-10.765 2.973-2.971 7.792-2.971 10.765 0l32.429 32.429c2.972 2.973 2.972 7.792 0 10.765-1.486 1.485-3.435 2.229-5.382 2.229z" fill="#f9f6f9"/></g><g><path d="m287.498 252.921c-.183 0-.368-.006-.553-.02-4.193-.301-7.348-3.945-7.047-8.137l.939-13.067c.271-3.774 3.273-6.776 7.047-7.047l13.067-.939c4.185-.313 7.835 2.853 8.137 7.047.301 4.192-2.853 7.835-7.047 8.137l-6.493.467-.467 6.493c-.287 4.007-3.627 7.066-7.583 7.066z" fill="#f9f6f9"/></g><g><path d="m277.087 234.282c-1.947 0-3.896-.743-5.383-2.229-2.972-2.973-2.972-7.792 0-10.765l5.77-5.77c2.973-2.971 7.792-2.971 10.765 0 2.972 2.973 2.972 7.792 0 10.765l-5.77 5.77c-1.486 1.485-3.435 2.229-5.382 2.229z" fill="#f9f6f9"/></g></g><g><g><path d="m256 253.286c-4.204 0-7.611-3.407-7.611-7.611v-45.861c0-4.204 3.407-7.611 7.611-7.611s7.611 3.407 7.611 7.611v45.861c0 4.203-3.407 7.611-7.611 7.611z" fill="#f9f6f9"/></g><g><path d="m246.1 261.863c-2.132 0-4.252-.89-5.756-2.628-2.752-3.177-2.407-7.984.77-10.736l9.903-8.577c2.86-2.478 7.106-2.477 9.966-.001l9.904 8.577c3.177 2.752 3.522 7.559.771 10.737-2.753 3.176-7.559 3.523-10.737.771l-4.921-4.262-4.92 4.261c-1.44 1.246-3.214 1.858-4.98 1.858z" fill="#f9f6f9"/></g><g><path d="m260.08 241.326h-8.16c-4.204 0-7.611-3.407-7.611-7.611s3.407-7.611 7.611-7.611h8.16c4.204 0 7.612 3.407 7.612 7.611s-3.408 7.611-7.612 7.611z" fill="#f9f6f9"/></g></g><g><g><path d="m223.572 239.854c-1.947 0-3.896-.743-5.382-2.229-2.973-2.973-2.973-7.792-.001-10.764l32.428-32.429c2.973-2.973 7.793-2.972 10.764-.001 2.973 2.973 2.973 7.792.001 10.764l-32.428 32.429c-1.487 1.486-3.435 2.23-5.382 2.23z" fill="#f9f6f9"/></g><g><path d="m224.502 252.921c-3.955 0-7.296-3.058-7.584-7.066l-.467-6.493-6.493-.467c-4.193-.301-7.348-3.944-7.047-8.137.3-4.192 3.966-7.362 8.137-7.047l13.067.939c3.774.271 6.776 3.273 7.047 7.047l.939 13.067c.301 4.192-2.853 7.835-7.047 8.137-.184.014-.369.02-.552.02z" fill="#f9f6f9"/></g><g><path d="m234.913 234.282c-1.947 0-3.896-.743-5.383-2.229l-5.77-5.77c-2.972-2.973-2.972-7.792 0-10.765 2.973-2.971 7.792-2.971 10.765 0l5.77 5.77c2.972 2.973 2.972 7.792 0 10.765-1.486 1.485-3.434 2.229-5.382 2.229z" fill="#f9f6f9"/></g></g><g><g><path d="m256 207.424h-45.86c-4.204 0-7.611-3.407-7.611-7.611s3.407-7.611 7.611-7.611h45.86c4.204 0 7.611 3.407 7.611 7.611s-3.407 7.611-7.611 7.611z" fill="#f9f6f9"/></g><g><path d="m201.56 217.328c-1.766 0-3.54-.611-4.98-1.857-3.177-2.752-3.522-7.559-.771-10.737l4.262-4.921-4.261-4.92c-2.752-3.177-2.407-7.984.77-10.736s7.985-2.409 10.736.77l8.577 9.903c2.478 2.86 2.478 7.106.001 9.966l-8.577 9.904c-1.506 1.737-3.626 2.628-5.757 2.628z" fill="#f9f6f9"/></g><g><path d="m222.099 211.505c-4.204 0-7.611-3.407-7.611-7.611v-8.16c0-4.204 3.407-7.611 7.611-7.611s7.611 3.407 7.611 7.611v8.16c0 4.203-3.407 7.611-7.611 7.611z" fill="#f9f6f9"/></g></g><g><g><path d="m256 207.424c-1.947 0-3.896-.743-5.383-2.229l-32.428-32.428c-2.972-2.973-2.972-7.792 0-10.765 2.973-2.971 7.792-2.971 10.765 0l32.428 32.428c2.972 2.973 2.972 7.792 0 10.765-1.486 1.486-3.435 2.229-5.382 2.229z" fill="#f9f6f9"/></g><g><path d="m210.496 175.935c-3.955 0-7.296-3.058-7.584-7.066-.301-4.192 2.853-7.835 7.047-8.137l6.493-.467.467-6.493c.3-4.192 3.965-7.356 8.137-7.047 4.193.301 7.348 3.944 7.047 8.137l-.939 13.067c-.271 3.774-3.273 6.776-7.047 7.047l-13.067.939c-.186.014-.37.02-.554.02z" fill="#f9f6f9"/></g><g><path d="m229.143 186.338c-1.947 0-3.896-.743-5.383-2.229-2.972-2.973-2.972-7.792 0-10.765l5.77-5.77c2.973-2.971 7.792-2.971 10.765 0 2.972 2.973 2.972 7.792 0 10.765l-5.77 5.77c-1.486 1.486-3.434 2.229-5.382 2.229z" fill="#f9f6f9"/></g></g></g><g><g><path d="m477.338 70.411c-4.204 0-7.612-3.407-7.612-7.611 0-5.302 2.126-8.354 3.396-10.176.663-.951.663-.951.663-1.474 0-.522 0-.522-.663-1.474-1.271-1.823-3.396-4.874-3.396-10.176 0-5.303 2.127-8.353 3.398-10.175.661-.948.661-.948.661-1.467 0-4.204 3.407-7.611 7.611-7.611s7.612 3.407 7.612 7.611c0 5.302-2.127 8.352-3.397 10.174-.662.948-.662.948-.662 1.468 0 .521 0 .521.663 1.473 1.271 1.823 3.396 4.874 3.396 10.177s-2.126 8.355-3.396 10.177c-.663.951-.663.951-.663 1.473 0 4.203-3.407 7.611-7.611 7.611z" fill="#da4a54"/></g><g><path d="m451.77 118.579c-4.203 0-7.611-3.386-7.611-7.59 0-2.861.75-4.727 1.251-5.826-.5-1.098-1.251-2.963-1.251-5.825 0-3.079.869-5.005 1.362-6.062.15-4.072 3.498-7.349 7.607-7.349 4.203 0 7.612 3.386 7.612 7.59 0 2.859-.749 4.723-1.251 5.823.501 1.098 1.251 2.963 1.251 5.824 0 3.08-.869 5.007-1.361 6.064-.151 4.074-3.5 7.351-7.609 7.351z" fill="#da4a54"/></g><g><path d="m34.663 70.411c-4.204 0-7.611-3.407-7.611-7.611 0-.521 0-.521-.663-1.473-1.271-1.823-3.396-4.874-3.396-10.177s2.126-8.355 3.396-10.177c.663-.951.663-.951.663-1.473 0-.519 0-.519-.662-1.468-1.271-1.823-3.397-4.872-3.397-10.174 0-4.204 3.407-7.611 7.611-7.611s7.611 3.407 7.611 7.611c0 .518 0 .518.661 1.467 1.272 1.823 3.398 4.872 3.398 10.175 0 5.302-2.126 8.354-3.396 10.176-.663.951-.663.951-.663 1.474 0 .522 0 .522.663 1.474 1.271 1.823 3.396 4.874 3.396 10.176 0 4.203-3.407 7.611-7.611 7.611z" fill="#da4a54"/></g><g><path d="m60.231 118.601c-4.124 0-7.482-3.279-7.608-7.374-.493-1.057-1.362-2.984-1.362-6.063 0-2.859.749-4.724 1.251-5.824-.501-1.099-1.251-2.964-1.251-5.823 0-4.204 3.407-7.611 7.611-7.611 4.123 0 7.481 3.278 7.608 7.371.494 1.058 1.362 2.984 1.362 6.062 0 2.86-.75 4.725-1.252 5.825.501 1.099 1.252 2.964 1.252 5.826 0 4.204-3.407 7.611-7.611 7.611zm6.254-25.04h.01z" fill="#da4a54"/></g></g></g></svg>